<?xml version="1.0" standalone="no"?>
<!DOCTYPE svg PUBLIC "-//W3C//DTD SVG 20010904//EN"
 "http://www.w3.org/TR/2001/REC-SVG-20010904/DTD/svg10.dtd">
<svg version="1.0" xmlns="http://www.w3.org/2000/svg"
 width="700.000000pt" height="700.000000pt" viewBox="0 0 700.000000 700.000000"
 preserveAspectRatio="xMidYMid meet">
<metadata>
Created by potrace 1.14, written by Peter Selinger 2001-2017
</metadata>
<g transform="translate(0.000000,700.000000) scale(0.100000,-0.100000)"
fill="#000000" stroke="none">
<path d="M3290 6643 c-1289 -94 -2381 -943 -2780 -2163 -107 -326 -152 -611
-152 -970 -1 -334 35 -591 123 -897 293 -1013 1117 -1837 2136 -2133 293 -86
561 -122 893 -122 436 1 802 73 1195 235 815 336 1457 1010 1760 1847 125 344
178 659 179 1055 0 292 -20 481 -80 735 -204 859 -774 1607 -1549 2032 -381
209 -827 343 -1250 376 -108 9 -386 11 -475 5z m610 -368 c810 -127 1486 -557
1935 -1230 231 -346 376 -733 441 -1180 28 -184 25 -572 -5 -764 -46 -303
-129 -567 -262 -837 -272 -555 -738 -1018 -1294 -1285 -279 -134 -526 -208
-850 -255 -169 -25 -563 -25 -729 -1 -344 52 -578 123 -871 267 -289 141 -544
328 -776 566 -142 146 -216 239 -331 414 -282 427 -437 918 -455 1440 -16 467
77 896 287 1325 140 287 308 523 530 745 470 469 1056 744 1735 814 99 10 544
-3 645 -19z"/>
<path d="M3270 6230 c-899 -86 -1668 -571 -2129 -1343 -392 -655 -483 -1505
-240 -2238 189 -573 559 -1065 1058 -1407 410 -282 885 -443 1385 -471 802
-45 1560 251 2117 827 423 436 679 973 755 1581 18 147 20 470 4 611 -67 593
-302 1114 -702 1558 -420 467 -1025 782 -1663 867 -145 19 -454 27 -585 15z
m-119 -1083 c44 -18 102 -68 128 -110 11 -18 65 -141 121 -274 l101 -242 -23
-86 c-12 -47 -25 -85 -28 -85 -3 0 -61 134 -129 298 -68 163 -133 312 -145
330 -29 45 -114 86 -164 79 -20 -2 -343 -132 -716 -288 -552 -231 -685 -290
-711 -317 -37 -37 -60 -107 -52 -151 9 -42 956 -2311 979 -2343 31 -44 84 -71
141 -71 43 -1 89 15 271 91 l219 92 28 -20 c15 -12 45 -28 66 -36 l37 -16 -34
-15 c-19 -8 -138 -58 -265 -111 l-230 -97 -90 0 c-73 0 -98 4 -130 22 -57 30
-114 90 -141 148 -32 70 -933 2231 -951 2280 -19 53 -18 144 2 204 18 54 69
120 118 149 60 37 1381 584 1427 591 52 8 122 -1 171 -22z m1510 -266 c332
-88 660 -174 729 -192 88 -24 136 -42 165 -64 54 -40 95 -122 95 -189 0 -58
-620 -2426 -651 -2488 -43 -84 -158 -139 -254 -121 -139 27 -1396 365 -1442
389 -29 14 -64 42 -79 61 -28 37 -54 109 -54 152 0 22 578 2232 631 2414 34
117 123 190 235 196 11 1 292 -71 625 -158z m-2855 -437 c20 -20 25 -33 22
-60 -4 -33 4 -45 17 -24 3 6 24 10 45 10 30 0 43 -6 59 -26 29 -37 26 -70 -8
-105 -31 -30 -59 -36 -92 -19 -31 17 -22 -5 16 -39 20 -17 48 -31 63 -32 21
-1 16 -5 -23 -16 -27 -9 -61 -23 -75 -33 -47 -32 -51 -32 -30 2 21 34 26 83
11 106 -6 10 -10 7 -15 -12 -14 -55 -108 -70 -141 -23 -34 49 -1 127 53 127
24 0 24 0 -7 29 -22 21 -31 38 -31 62 0 73 84 106 136 53z m1024 -644 c69 -35
98 -126 67 -203 -8 -18 -21 -38 -30 -46 -10 -7 -17 -25 -16 -40 1 -25 1 -24
16 9 60 142 224 155 292 23 24 -48 5 -128 -40 -170 -46 -41 -156 -50 -192 -14
-18 18 -28 12 -17 -10 37 -68 104 -114 193 -133 42 -10 32 -23 -20 -25 -54 -2
-155 -45 -213 -91 -20 -16 -40 -27 -43 -24 -3 3 9 26 26 50 34 49 47 130 29
194 l-9 35 -18 -43 c-51 -124 -205 -144 -276 -35 -24 36 -25 115 -1 155 38 66
137 92 210 56 17 -9 32 -13 32 -8 0 15 -25 27 -68 33 -86 11 -149 89 -139 173
12 108 119 164 217 114z"/>
<path d="M4045 4851 c-98 -49 -135 -85 -142 -139 -5 -36 -2 -45 26 -73 27 -26
37 -30 71 -27 22 2 40 1 40 -3 0 -10 -33 -36 -74 -56 l-39 -20 62 -6 c35 -3
76 -14 96 -26 19 -11 35 -16 35 -11 0 5 -5 12 -10 15 -12 7 -34 49 -45 84 l-7
24 27 -21 c65 -51 155 -6 155 78 0 45 -39 129 -88 188 l-27 33 -80 -40z"/>
<path d="M4400 3746 c-226 -101 -311 -184 -312 -305 0 -77 39 -134 114 -166
47 -19 79 -19 123 -1 19 8 35 12 35 8 0 -5 -19 -26 -42 -49 -41 -39 -85 -66
-153 -94 -28 -12 -25 -13 55 -21 105 -10 175 -30 224 -63 64 -44 73 -33 21 28
-35 41 -75 130 -75 169 0 20 1 20 24 -5 83 -89 236 -71 293 36 11 21 17 56 18
98 0 59 -5 76 -47 160 -44 88 -151 239 -173 245 -5 2 -53 -16 -105 -40z"/>
<path d="M4735 2327 c14 -24 25 -52 25 -61 0 -16 -3 -15 -26 3 -63 50 -154 0
-154 -84 0 -31 41 -115 83 -170 17 -22 32 -42 34 -44 8 -10 174 82 197 110 39
46 37 108 -6 144 -26 22 -39 26 -71 22 l-39 -5 24 25 c12 14 39 33 58 41 l35
16 -56 6 c-31 4 -71 14 -89 24 -18 9 -35 16 -37 16 -2 0 8 -20 22 -43z"/>
<path d="M1755 4300 c3 -5 11 -10 16 -10 6 0 7 5 4 10 -3 6 -11 10 -16 10 -6
0 -7 -4 -4 -10z"/>
</g>
</svg>
